<svg width="52" height="52" viewBox="0 0 52 52" fill="none" xmlns="http://www.w3.org/2000/svg">
<g clip-path="url(#clip0)">
<path d="M21.9224 2.92298L21.9402 2.84181L21.9402 37.6378L10.9775 26.6992C10.4423 26.1636 9.71724 25.8698 8.95626 25.8698C8.19529 25.8698 7.47532 26.1636 6.93883 26.6992L5.23594 28.4013C4.70072 28.9365 4.40479 29.6497 4.40479 30.4103C4.40479 31.1712 4.69861 31.8849 5.23383 32.4201L23.983 51.1709C24.5203 51.7083 25.2361 52.0021 25.9975 52C26.7631 52.0021 27.4793 51.7083 28.0157 51.1709L46.7666 32.4201C47.3014 31.8849 47.5956 31.1717 47.5956 30.4103C47.5956 29.6497 47.301 28.9365 46.7666 28.4013L45.0637 26.6992C44.5293 26.1636 43.8157 25.8698 43.0547 25.8698C42.2942 25.8698 41.6182 26.1636 41.0834 26.6992L30.0594 37.7613L30.0594 2.88409C30.0594 1.3169 28.7087 -1.14441e-05 27.1423 -1.14441e-05H24.7338C23.1675 -1.14441e-05 21.9224 1.35579 21.9224 2.92298Z" fill="white"/>
</g>
<defs>
<clipPath id="clip0">
<rect y="52" width="52" height="52" transform="rotate(-90 0 52)" fill="white"/>
</clipPath>
</defs>
</svg>
