<svg width="52" height="52" viewBox="0 0 52 52" fill="none" xmlns="http://www.w3.org/2000/svg">
<g clip-path="url(#clip0)">
<path d="M30.0776 49.077L30.0598 49.1582L30.0598 14.3622L41.0225 25.3008C41.5577 25.8364 42.2828 26.1302 43.0437 26.1302C43.8047 26.1302 44.5247 25.8364 45.0612 25.3008L46.7641 23.5987C47.2993 23.0635 47.5952 22.3503 47.5952 21.5897C47.5952 20.8288 47.3014 20.1151 46.7662 19.5799L28.017 0.829052C27.4797 0.291719 26.7639 -0.00210249 26.0025 1.13264e-05C25.2369 -0.00210249 24.5207 0.291719 23.9843 0.829052L5.2334 19.5799C4.6986 20.1151 4.40436 20.8283 4.40436 21.5897C4.40436 22.3503 4.69902 23.0635 5.2334 23.5987L6.93629 25.3008C7.47066 25.8364 8.18429 26.1302 8.94527 26.1302C9.70582 26.1302 10.3818 25.8364 10.9166 25.3008L21.9406 14.2387L21.9406 49.1159C21.9406 50.6831 23.2913 52 24.8577 52H27.2662C28.8325 52 30.0776 50.6442 30.0776 49.077Z" fill="white"/>
</g>
<defs>
<clipPath id="clip0">
<rect x="52" width="52" height="52" transform="rotate(90 52 0)" fill="white"/>
</clipPath>
</defs>
</svg>
