<svg width="58" height="46" viewBox="0 0 58 46" fill="none" xmlns="http://www.w3.org/2000/svg">
<path d="M52.1275 29.2621C52.1456 29.0914 52.2 28.9297 52.2 28.759C52.2 25.5875 49.5991 23.009 46.4 23.009C45.2581 23.009 44.2069 23.3504 43.3097 23.9074C41.7147 20.4215 38.1894 17.9777 34.075 17.9777C28.4744 17.9777 23.925 22.4789 23.925 28.0402C23.925 28.3098 23.9884 28.5613 24.0066 28.8219C19.5116 29.1543 15.95 32.8379 15.95 37.384C15.95 42.1457 19.8469 46.009 24.65 46.009H49.3C54.1031 46.009 58 42.1457 58 37.384C58 33.6016 55.535 30.4301 52.1275 29.2621ZM13.1225 27.2316C9.16219 23.3055 9.16219 16.9266 13.1225 13.0094C17.0828 9.0832 23.5172 9.0832 27.4775 13.0094C28.3566 13.8809 29.0091 14.8871 29.4984 15.9473C30.3866 15.6148 31.32 15.4082 32.2806 15.2734L34.9813 7.28633C35.3438 6.21719 34.3197 5.21094 33.2412 5.56133L25.2844 8.19375L21.5234 0.754687C21.025 -0.251563 19.575 -0.251563 19.0675 0.754687L15.3156 8.19375L7.34969 5.56133C6.28031 5.21094 5.25625 6.22617 5.60969 7.28633L8.265 15.1746L0.76125 18.9031C-0.25375 19.4062 -0.25375 20.8348 0.76125 21.3379L8.265 25.0574L5.60969 32.9457C5.24719 34.0148 6.27125 35.0211 7.34969 34.6707L14.2463 32.3977C14.7991 31.2836 15.515 30.2684 16.385 29.3879C15.1978 28.9027 14.0831 28.184 13.1225 27.2316ZM12.6875 20.116C12.6875 23.7816 15.3428 26.8363 18.8409 27.5102C19.5659 27.0879 20.3181 26.7195 21.1247 26.459C21.6141 22.4789 23.9341 19.0469 27.2328 17.0254C26.0366 14.4109 23.3813 12.5781 20.3 12.5781C16.1041 12.5781 12.6875 15.9562 12.6875 20.116Z" fill="white"/>
</svg>
