<svg width="36" height="36" viewBox="0 0 36 36" fill="none" xmlns="http://www.w3.org/2000/svg">
<path d="M30.857 9C28.0206 9 25.7141 11.3071 25.7141 14.1429C25.7141 14.8529 26.2892 15.4286 26.9998 15.4286C27.7105 15.4286 28.2855 14.8529 28.2855 14.1429C28.2855 12.7246 29.4394 11.5714 30.857 11.5714C32.2746 11.5714 33.4284 12.7246 33.4284 14.1429C33.4284 15.5611 32.2746 16.7143 30.857 16.7143H1.38728C0.676598 16.7143 0.101562 17.29 0.101562 18C0.101562 18.71 0.676598 19.2857 1.38728 19.2857H30.857C33.6933 19.2857 35.9998 16.9786 35.9998 14.1429C35.9998 11.3071 33.6933 9 30.857 9Z" fill="white"/>
<path d="M18 3.85718C15.1636 3.85718 12.8571 6.16431 12.8571 9.00003C12.8571 9.71007 13.4322 10.2857 14.1429 10.2857C14.8535 10.2857 15.4286 9.71007 15.4286 9.00003C15.4286 7.58181 16.5824 6.42861 18 6.42861C19.4176 6.42861 20.5714 7.58181 20.5714 9.00003C20.5714 10.4183 19.4176 11.5715 18 11.5715H1.28571C0.575036 11.5715 0 12.1471 0 12.8572C0 13.5672 0.575036 14.1429 1.28571 14.1429H18C20.8364 14.1429 23.1429 11.8358 23.1429 9.00003C23.1429 6.16431 20.8364 3.85718 18 3.85718Z" fill="white"/>
<path d="M18 21.8572H1.28571C0.575036 21.8572 0 22.4329 0 23.1429C0 23.8529 0.575036 24.4286 1.28571 24.4286H18C19.4176 24.4286 20.5714 25.5818 20.5714 27C20.5714 28.4183 19.4176 29.5715 18 29.5715C16.5824 29.5715 15.4286 28.4183 15.4286 27C15.4286 26.29 14.8535 25.7143 14.1429 25.7143C13.4322 25.7143 12.8571 26.29 12.8571 27C12.8571 29.8358 15.1636 32.1429 18 32.1429C20.8364 32.1429 23.1429 29.8358 23.1429 27C23.1429 24.1643 20.8364 21.8572 18 21.8572Z" fill="white"/>
</svg>
