<svg width="50" height="52" viewBox="0 0 50 52" fill="none" xmlns="http://www.w3.org/2000/svg">
<path fill-rule="evenodd" clip-rule="evenodd" d="M5.15687 0.914834C4.00526 -0.27637 2.10604 -0.30847 0.914834 0.843137C-0.27637 1.99474 -0.30847 3.89397 0.843137 5.08517L20.7286 25.6544L0.843137 46.2236C-0.30847 47.4148 -0.27637 49.314 0.914834 50.4656C2.10604 51.6172 4.00526 51.5851 5.15687 50.3939L24.9013 29.9706L44.6456 50.3938C45.7973 51.585 47.6965 51.6171 48.8877 50.4655C50.0789 49.3139 50.111 47.4147 48.9594 46.2235L29.074 25.6544L48.9594 5.08528C50.111 3.89408 50.0789 1.99485 48.8877 0.843247C47.6965 -0.308361 45.7973 -0.27626 44.6456 0.914944L24.9013 21.3382L5.15687 0.914834Z" fill="#164A4A"/>
</svg>
